<?xml version="1.0" encoding="utf-8"?>
<!-- Generator: Adobe Illustrator 27.0.1, SVG Export Plug-In . SVG Version: 6.00 Build 0)  -->
<svg version="1.1" id="Layer_1" xmlns="http://www.w3.org/2000/svg" xmlns:xlink="http://www.w3.org/1999/xlink" x="0px" y="0px"
	 viewBox="0 0 1366 768" style="enable-background:new 0 0 1366 768;" xml:space="preserve">
<style type="text/css">
	.st0{fill:#FFE4E6;}
	.st1{fill:#EF4444;}
	.st2{fill:#D4D4D8;stroke:#71717A;stroke-width:3;stroke-miterlimit:10;}
	.st3{fill:#FFE4E6;stroke:#71717A;stroke-width:3;stroke-miterlimit:10;}
	.st4{font-family:'Lato-Regular';}
	.st5{font-size:72px;}
	.st6{font-size:18px;}
	.st7{font-size:21px;}
	.st8{fill:#71717A;}
</style>
<path class="st0" d="M1331,768H35c-19.3,0-35-15.7-35-35V38C0,18.7,15.7,3,35,3h1296c19.3,0,35,15.7,35,35v695
	C1366,752.3,1350.3,768,1331,768z"/>
<path class="st1" d="M307.1,341.6c-1.4-0.1-2.8-0.2-4.1-0.3c0-0.9,0-1.8,0-2.7c-0.1-14.5-4.5-25.3-11.8-27.5
	c-7.1-2.1-16.5,3.8-24.9,14.9c-0.8,1.1-1.6,2.2-2.4,3.3c-0.8-0.5-1.6-0.9-2.4-1.4c-12.9-7-24.7-8.6-30.4-3.5
	c-5.5,4.9-5,15.8,0.5,28.4c0.5,1.2,1.1,2.5,1.7,3.7c-1.4,0.8-2.8,1.6-4.1,2.4c-11.8,7.1-19.5,15.9-17.9,23c1.6,7.3,13,12.4,27.2,14
	c1.2,0.1,2.3,0.2,3.5,0.3c-0.1,1.5-0.1,2.9,0,4.4c0.3,13.5,4.5,23.3,11.6,25.5c7.3,2.2,17.3-3.9,25.9-15.2c0.7-0.9,1.4-1.8,2-2.8
	c1.3,0.8,2.6,1.5,3.9,2.2c12.1,6.3,23,7.6,28.5,2.7c5.7-5.1,5.3-16.5-0.3-29.4c-0.4-1-0.9-2-1.4-3c0.7-0.4,1.4-0.8,2.1-1.2
	c12.8-7.5,21.2-16.9,19.6-24.3C332,347.9,321.1,343.1,307.1,341.6z M270.4,328.9c7.2-9.5,14.9-14.3,19.1-13
	c4.5,1.4,8.1,10.2,8.2,22.7c0,0.8,0,1.6,0,2.5c-5.6,0-11.1,0.3-16.6,1.1c-4.1-3.7-8.4-7.1-12.9-10.2
	C268.9,330.9,269.6,329.9,270.4,328.9z M253.8,385.2c1.7,1.8,3.4,3.5,5.1,5.2c-3.8,0.4-7.6,0.7-11.5,0.7c0.3-3.6,0.9-7.4,1.6-11.2
	C250.6,381.6,252.1,383.4,253.8,385.2z M240.4,358.7c3.3-1.5,6.8-2.9,10.5-4.2c-0.8,2.2-1.6,4.5-2.4,6.7c-0.7,2.2-1.4,4.5-2.1,6.8
	C244.2,364.9,242.1,361.8,240.4,358.7z M250.4,373.3c0.9-3.6,1.9-7.1,3-10.6c1.1-3.5,2.4-6.9,3.8-10.4c3.5-1,7.2-2,10.9-2.8
	c3.7-0.8,7.4-1.5,11.1-2c2.7,2.5,5.3,5.1,7.8,7.8s4.9,5.4,7.3,8.3c-0.9,3.6-1.9,7.1-3.1,10.6c-1.1,3.5-2.4,6.9-3.8,10.4
	c-3.5,1-7.2,2-10.9,2.8c-3.8,0.8-7.4,1.5-11,2.1c-2.7-2.5-5.4-5.1-7.9-7.8C255.1,379,252.8,376.2,250.4,373.3z M296.2,375.8
	c0.8-2.3,1.5-4.6,2.1-7c2.3,3,4.4,6.2,6.3,9.4c-3.5,1.6-7.1,3.1-10.8,4.3C294.7,380.3,295.5,378.1,296.2,375.8z M295.8,357.2
	c-1.6-1.8-3.2-3.6-4.8-5.4c-1.6-1.7-3.3-3.4-4.9-5.1c4-0.4,7.8-0.6,11.4-0.5C297,349.9,296.5,353.6,295.8,357.2z M265.4,336.4
	c3.1,2.1,6.1,4.4,8.9,6.8c-4.8,0.8-9.5,1.9-14.2,3.1C261.7,342.8,263.5,339.4,265.4,336.4z M234.5,328.2c3.5-3.2,13.1-1.9,24.3,4.2
	c0.7,0.4,1.4,0.8,2.2,1.2c-2.8,4.7-5.4,9.6-7.5,14.6c-5.3,1.7-10.5,3.6-15.5,5.9c-0.6-1.1-1.1-2.3-1.6-3.4
	C231.6,339.9,231.2,331.1,234.5,328.2z M242.1,390.9c-1.1-0.1-2.1-0.1-3.2-0.3c-5.4-0.4-11.8-1.6-16.7-4c-2.8-1.1-5-3.3-6-6
	c-0.9-4.3,5.4-11.4,15.5-17.5c1.3-0.8,2.6-1.5,3.9-2.2c2.7,4.7,5.8,9.2,9.1,13.5C243.5,380,242.7,385.4,242.1,390.9z M275,407.7
	c-3.2,4.4-7.1,8.2-11.7,11.2c-2.4,1.8-5.4,2.6-8.4,2.2c-4.3-1.3-7.7-9.2-7.9-20.8c0-1.4,0-2.7,0-4.1c5.6-0.1,11.2-0.5,16.7-1.3
	c4.1,3.7,8.5,7.1,13.1,10.2C276.2,406,275.6,406.8,275,407.7z M279.6,400.7c-3-2-6.1-4.3-9.1-6.9c2.3-0.4,4.7-0.9,7.1-1.4
	c2.5-0.5,4.9-1.1,7.2-1.8C283.3,394.1,281.5,397.5,279.6,400.7z M312.4,400.9c0.4,2.9-0.4,5.9-2.3,8.2c-3.3,3-12,2-22.4-3.4
	c-1.2-0.6-2.4-1.3-3.6-2c2.8-4.7,5.2-9.7,7.3-14.7c5.4-1.6,10.6-3.7,15.8-6c0.4,0.9,0.9,1.8,1.3,2.7
	C310.7,390.3,312,395.5,312.4,400.9z M311.2,374.8c-0.6,0.4-1.2,0.7-1.9,1.1c-2.8-4.7-5.9-9.2-9.4-13.5c1.3-5.3,2.1-10.6,2.6-16
	c1.3,0.1,2.6,0.2,3.8,0.3c12,1.3,21,5.1,21.9,9.4C329.4,360.6,322.3,368.4,311.2,374.8z M274.7,379.2c6-1.3,9.9-7.2,8.6-13.1
	c-1.3-5.9-7.2-9.6-13.3-8.3c-6,1.3-9.9,7.2-8.6,13.1C262.7,376.8,268.7,380.5,274.7,379.2z"/>
<path class="st1" d="M1147.1,375c-1.1-0.8-2.3-1.6-3.4-2.3c0.5-0.8,0.9-1.6,1.3-2.4c7-12.8,8.4-24.3,3.1-29.8
	c-5.1-5.3-16.3-4.7-29,0.8c-1.3,0.5-2.5,1.1-3.7,1.7c-0.5-0.8-0.9-1.6-1.4-2.3c-7.9-12.4-17.4-19.5-24.9-17.8
	c-7.2,1.6-12.1,11.4-13.4,25.1c-0.1,1.4-0.2,2.7-0.3,4.1c-1.6,0-3.2,0-4.8,0c-13.8,0.5-24.8,4.4-26.8,11.4
	c-2.1,7.1,5.3,17.2,17,25.4c1,0.7,1.9,1.3,2.9,1.9c-0.8,1.3-1.5,2.5-2.2,3.8c-6.3,12-7.4,22.6-2.3,27.9c5.3,5.5,17,5,30-0.7
	c1-0.5,2.1-0.9,3.1-1.5c0.7,1.3,1.5,2.6,2.3,3.8c7.5,11.4,16.4,17.8,23.5,16.2c7.4-1.7,12.7-11.9,14-25.8c0.1-1.1,0.2-2.2,0.2-3.3
	c0.8,0,1.6,0,2.4,0c14.8-0.3,26.8-4.4,28.9-11.7C1165.8,392.6,1158.6,383.1,1147.1,375z M1121.2,346.1c10.9-4.8,19.9-5.2,23-2.1
	c3.3,3.4,2.1,12.8-3.9,23.9c-0.4,0.7-0.8,1.4-1.2,2.1c-4.9-2.7-9.9-5.1-15-7.2c-1.8-5.2-3.9-10.2-6.3-15.1
	C1118.9,347.1,1120.1,346.6,1121.2,346.1z M1079.3,387.1c0.6,2.3,1.2,4.7,1.9,7c-3.5-1.5-7-3.2-10.4-5c2-3,4.3-6,6.9-9
	C1078.2,382.5,1078.7,384.8,1079.3,387.1z M1080.5,357.5c3.6,0.3,7.4,0.8,11.2,1.4c-1.8,1.5-3.6,3.1-5.4,4.7
	c-1.7,1.6-3.5,3.2-5.1,4.9C1080.8,364.7,1080.6,361,1080.5,357.5z M1082.2,375.2c2.5-2.7,5.1-5.3,7.8-7.8c2.7-2.5,5.5-4.9,8.4-7.2
	c3.6,0.8,7.2,1.7,10.9,2.8s7.2,2.3,10.6,3.6c1.1,3.5,2.1,7,3,10.6c0.9,3.6,1.7,7.2,2.3,10.8c-2.5,2.7-5.1,5.3-7.9,7.8
	c-2.7,2.5-5.5,4.9-8.4,7.2c-3.6-0.8-7.2-1.8-10.9-2.9s-7.2-2.3-10.6-3.5c-1.2-3.5-2.2-7.1-3.1-10.7
	C1083.5,382.4,1082.8,378.8,1082.2,375.2z M1121,399.6c1.8-1.7,3.5-3.4,5.3-5.1c0.5,3.8,0.8,7.5,0.9,11.3c-3.9-0.3-7.7-0.8-11.6-1.5
	C1117.4,402.8,1119.2,401.2,1121,399.6z M1129.6,383.1c-0.5-2.3-1-4.7-1.6-7c-0.6-2.3-1.2-4.6-1.9-6.8c3.6,1.6,7.1,3.3,10.2,5.1
	C1134.3,377.4,1132,380.3,1129.6,383.1z M1113.2,350.1c1.7,3.3,3.2,6.8,4.5,10.3c-4.6-1.6-9.2-3-13.9-4.2
	C1106.9,354,1110.1,351.9,1113.2,350.1z M1090.2,327.9c4.6-1.1,12.4,4.8,19.2,15.5c0.4,0.7,0.9,1.4,1.3,2.1
	c-4.8,2.7-9.4,5.8-13.7,9.1c-5.4-1.1-10.9-1.9-16.5-2.4c0-1.3,0.1-2.5,0.2-3.8C1081.9,336.8,1085.9,328.9,1090.2,327.9z
	 M1066.4,386.5c-0.9-0.6-1.8-1.2-2.6-1.8c-4.5-3-9.5-7.2-12.6-11.6c-1.9-2.3-2.7-5.3-2.3-8.2c1.3-4.2,10.3-7.3,22.1-7.7
	c1.5-0.1,3-0.1,4.4,0c0.1,5.4,0.6,10.9,1.4,16.3C1072.9,377.6,1069.5,381.9,1066.4,386.5z M1086.9,417.1c-4.9,2.3-10.2,3.7-15.6,4.1
	c-3,0.4-6-0.4-8.4-2.2c-3.1-3.2-2.2-11.8,3.2-22c0.6-1.2,1.3-2.4,2-3.6c4.9,2.7,10,5,15.2,7c1.8,5.2,4,10.3,6.5,15.3
	C1088.8,416.2,1087.9,416.7,1086.9,417.1z M1094.4,413.3c-1.6-3.2-3.2-6.7-4.6-10.4c2.2,0.8,4.5,1.5,6.9,2.2c2.4,0.7,4.8,1.4,7.2,2
	C1100.8,409.3,1097.6,411.4,1094.4,413.3z M1122.9,429.4c-1,2.7-3.2,4.9-6,6c-4.4,1-11.5-4.1-17.9-13.9c-0.7-1.1-1.5-2.3-2.2-3.5
	c4.7-2.8,9.3-5.9,13.6-9.3c5.5,1.2,11.1,2,16.7,2.4c0,1-0.1,2-0.2,3C1126.6,419.3,1125.2,424.5,1122.9,429.4z M1134.6,406.1
	c-0.7,0-1.4,0-2.2,0c-0.1-5.5-0.7-11-1.6-16.4c3.7-4,7-8.2,10.1-12.7c1.1,0.7,2.2,1.4,3.2,2.1c9.8,6.9,15.8,14.7,14.6,18.9
	C1157.3,402.5,1147.4,405.8,1134.6,406.1z M1100.5,392.1c5.9,1.8,12.1-1.5,13.9-7.2c1.7-5.8-1.7-11.9-7.6-13.7s-12.1,1.5-13.9,7.2
	C1091.2,384.2,1094.6,390.3,1100.5,392.1z"/>
<path class="st2" d="M857.6,307H537.4c-17.9,0-32.4-14.5-32.4-32.4V161.4c0-17.9,14.5-32.4,32.4-32.4h320.2
	c17.9,0,32.4,14.5,32.4,32.4v113.2C890,292.5,875.5,307,857.6,307z"/>
<path class="st3" d="M849.1,286.5H547.9c-12.9,0-23.4-10.5-23.4-23.4v-90.2c0-12.9,10.5-23.4,23.4-23.4h301.2
	c12.9,0,23.4,10.5,23.4,23.4v90.2C872.5,276,862,286.5,849.1,286.5z"/>
<path class="st2" d="M903.6,317.5H490.4c-7.9,0-14.4-6.4-14.4-14.4v-9.7c0-7.9,6.4-14.4,14.4-14.4h413.2c7.9,0,14.4,6.4,14.4,14.4
	v9.7C918,311.1,911.6,317.5,903.6,317.5z"/>
<path class="st2" d="M621.4,588.5H511.6c-9.7,0-17.6-7.9-17.6-17.6V421.6c0-9.7,7.9-17.6,17.6-17.6h109.8c9.7,0,17.6,7.9,17.6,17.6
	v149.3C639,580.6,631.1,588.5,621.4,588.5z"/>
<path class="st3" d="M610,546.5H521c-5.3,0-9.5-4.3-9.5-9.5V434c0-5.3,4.3-9.5,9.5-9.5H610c5.3,0,9.5,4.3,9.5,9.5V537
	C619.5,542.2,615.2,546.5,610,546.5z"/>
<circle class="st2" cx="565.5" cy="568.5" r="8"/>
<path class="st2" d="M867.1,585.5h-86.1c-8.5,0-15.4-6.9-15.4-15.4V421.9c0-8.5,6.9-15.4,15.4-15.4h86.1c8.5,0,15.4,6.9,15.4,15.4
	v148.1C882.5,578.6,875.6,585.5,867.1,585.5z"/>
<path class="st3" d="M855.7,565.5h-61.5c-7.1,0-12.8-5.7-12.8-12.8V441.3c0-7.1,5.7-12.8,12.8-12.8h61.5c7.1,0,12.8,5.7,12.8,12.8
	v111.5C868.5,559.8,862.8,565.5,855.7,565.5z"/>
<text transform="matrix(1 0 0 1 565.0229 242.3677)" class="st1 st4 st5">React</text>
<path class="st1" d="M575.2,459.9c-0.3-0.1-0.7-0.2-1-0.3c0.1-0.2,0.1-0.4,0.2-0.7c0.8-3.6,0.3-6.5-1.4-7.4c-1.6-0.9-4.3,0-7,2.3
	c-0.3,0.2-0.5,0.5-0.8,0.7c-0.2-0.2-0.3-0.3-0.5-0.5c-2.8-2.4-5.6-3.5-7.3-2.5c-1.6,0.9-2.1,3.6-1.4,7c0.1,0.3,0.1,0.7,0.2,1
	c-0.4,0.1-0.8,0.2-1.1,0.4c-3.3,1.1-5.7,2.9-5.7,4.7c0,1.9,2.5,3.8,6,4.9c0.3,0.1,0.6,0.2,0.8,0.3c-0.1,0.4-0.2,0.7-0.2,1.1
	c-0.6,3.3-0.1,6,1.5,6.9c1.7,0.9,4.5,0,7.2-2.4c0.2-0.2,0.4-0.4,0.6-0.6c0.3,0.3,0.6,0.5,0.8,0.7c2.6,2.2,5.3,3.1,6.9,2.2
	c1.7-0.9,2.2-3.8,1.5-7.3c-0.1-0.3-0.1-0.5-0.2-0.8c0.2-0.1,0.4-0.1,0.6-0.2c3.6-1.2,6.2-3,6.2-4.9
	C581,462.8,578.6,461.1,575.2,459.9z M566.8,454.8c2.3-2,4.4-2.7,5.4-2.2c1,0.6,1.4,3,0.8,6.1c0,0.2-0.1,0.4-0.1,0.6
	c-1.4-0.3-2.8-0.5-4.2-0.6c-0.8-1.1-1.7-2.2-2.6-3.2C566.4,455.2,566.6,455,566.8,454.8z M559.7,467.8c0.3,0.5,0.6,1,1,1.6
	c-1-0.1-1.9-0.3-2.9-0.5c0.3-0.9,0.6-1.8,1-2.7C559.1,466.8,559.4,467.3,559.7,467.8z M557.8,460.5c0.9-0.2,1.8-0.3,2.8-0.5
	c-0.3,0.5-0.6,1-1,1.5c-0.3,0.5-0.6,1-0.9,1.6C558.4,462.3,558.1,461.4,557.8,460.5z M559.5,464.7c0.4-0.8,0.9-1.6,1.3-2.4
	c0.5-0.8,1-1.6,1.5-2.3c0.9-0.1,1.9-0.1,2.8-0.1s1.9,0,2.8,0.1c0.5,0.8,1,1.5,1.5,2.3c0.5,0.8,0.9,1.6,1.3,2.4
	c-0.4,0.8-0.9,1.7-1.3,2.5c-0.5,0.8-1,1.6-1.5,2.4c-0.9,0.1-1.9,0.1-2.8,0.1s-1.9,0-2.8-0.1c-0.5-0.8-1-1.6-1.5-2.4
	C560.4,466.3,559.9,465.5,559.5,464.7z M570.7,467.8c0.3-0.5,0.6-1.1,0.9-1.6c0.4,0.9,0.7,1.8,1,2.7c-1,0.2-1.9,0.4-2.9,0.5
	C570,468.8,570.4,468.3,570.7,467.8z M571.6,463.2c-0.3-0.5-0.6-1.1-0.9-1.6c-0.3-0.5-0.6-1-0.9-1.5c1,0.1,1.9,0.3,2.8,0.5
	C572.3,461.4,571.9,462.3,571.6,463.2z M565.2,456.4c0.6,0.7,1.3,1.4,1.8,2.2c-1.2-0.1-2.5-0.1-3.7,0
	C563.9,457.8,564.6,457,565.2,456.4z M558,452.7c1-0.6,3.3,0.3,5.8,2.4c0.2,0.1,0.3,0.3,0.5,0.4c-1,1-1.8,2.1-2.7,3.2
	c-1.4,0.1-2.8,0.3-4.2,0.6c-0.1-0.3-0.1-0.6-0.2-0.9C556.7,455.4,557,453.2,558,452.7z M556.5,468.6c-0.3-0.1-0.5-0.2-0.8-0.2
	c-1.3-0.4-2.8-1-3.9-1.9c-0.6-0.4-1-1.1-1.2-1.8c0-1.1,2-2.5,4.8-3.5c0.4-0.1,0.7-0.2,1.1-0.3c0.4,1.3,0.9,2.6,1.5,3.8
	C557.4,466,556.9,467.3,556.5,468.6z M563.7,474.5c-1,0.9-2.2,1.6-3.5,2.1c-0.7,0.3-1.5,0.3-2.2,0.1c-1-0.6-1.4-2.7-0.8-5.6
	c0.1-0.3,0.1-0.7,0.2-1c1.4,0.3,2.8,0.5,4.2,0.6c0.8,1.1,1.7,2.2,2.7,3.2C564.1,474.1,563.9,474.3,563.7,474.5z M565.2,473
	c-0.6-0.7-1.3-1.4-1.9-2.2c0.6,0,1.2,0,1.8,0c0.6,0,1.3,0,1.9,0C566.5,471.6,565.9,472.3,565.2,473z M573.3,474.8
	c-0.1,0.7-0.4,1.4-1,1.9c-1,0.6-3.1-0.2-5.3-2.1c-0.3-0.2-0.5-0.5-0.8-0.7c0.9-1,1.8-2.1,2.6-3.2c1.4-0.1,2.8-0.3,4.2-0.6
	c0.1,0.2,0.1,0.5,0.2,0.7C573.5,472.1,573.5,473.5,573.3,474.8z M574.4,468.4c-0.2,0.1-0.3,0.1-0.5,0.2c-0.4-1.3-1-2.6-1.6-3.8
	c0.6-1.2,1.1-2.5,1.5-3.8c0.3,0.1,0.6,0.2,0.9,0.3c2.9,1,4.9,2.4,4.9,3.5C579.7,465.8,577.5,467.4,574.4,468.4z M565.2,467.5
	c1.6,0,2.8-1.2,2.8-2.8c0-1.5-1.3-2.8-2.8-2.8s-2.8,1.2-2.8,2.8C562.3,466.2,563.6,467.5,565.2,467.5z"/>
<path class="st1" d="M834.2,470.6c-0.3-0.1-0.7-0.2-1-0.3c0.1-0.2,0.1-0.4,0.2-0.7c0.8-3.6,0.3-6.5-1.4-7.4c-1.6-0.9-4.3,0-7,2.3
	c-0.3,0.2-0.5,0.5-0.8,0.7c-0.2-0.2-0.3-0.3-0.5-0.5c-2.8-2.4-5.6-3.5-7.3-2.5c-1.6,0.9-2.1,3.6-1.4,7c0.1,0.3,0.1,0.7,0.2,1
	c-0.4,0.1-0.8,0.2-1.1,0.4c-3.3,1.1-5.7,2.9-5.7,4.7c0,1.9,2.5,3.8,6,4.9c0.3,0.1,0.6,0.2,0.8,0.3c-0.1,0.4-0.2,0.7-0.2,1.1
	c-0.6,3.3-0.1,6,1.5,6.9c1.7,0.9,4.5,0,7.2-2.4c0.2-0.2,0.4-0.4,0.6-0.6c0.3,0.3,0.6,0.5,0.8,0.7c2.6,2.2,5.3,3.1,6.9,2.2
	c1.7-0.9,2.2-3.8,1.5-7.3c-0.1-0.3-0.1-0.5-0.2-0.8c0.2-0.1,0.4-0.1,0.6-0.2c3.6-1.2,6.2-3,6.2-4.9
	C840,473.5,837.6,471.7,834.2,470.6z M825.8,465.5c2.3-2,4.4-2.7,5.4-2.2c1,0.6,1.4,3,0.8,6.1c0,0.2-0.1,0.4-0.1,0.6
	c-1.4-0.3-2.8-0.5-4.2-0.6c-0.8-1.1-1.7-2.2-2.6-3.2C825.4,465.9,825.6,465.7,825.8,465.5z M818.7,478.5c0.3,0.5,0.6,1,1,1.6
	c-1-0.1-1.9-0.3-2.9-0.5c0.3-0.9,0.6-1.8,1-2.7C818.1,477.4,818.4,477.9,818.7,478.5z M816.8,471.2c0.9-0.2,1.8-0.3,2.8-0.5
	c-0.3,0.5-0.6,1-1,1.5c-0.3,0.5-0.6,1-0.9,1.6C817.4,472.9,817.1,472.1,816.8,471.2z M818.5,475.4c0.4-0.8,0.9-1.6,1.3-2.4
	c0.5-0.8,1-1.6,1.5-2.3c0.9-0.1,1.9-0.1,2.8-0.1c1,0,1.9,0,2.8,0.1c0.5,0.8,1,1.5,1.5,2.3c0.5,0.8,0.9,1.6,1.3,2.4
	c-0.4,0.8-0.9,1.7-1.3,2.5c-0.5,0.8-1,1.6-1.5,2.4c-0.9,0.1-1.9,0.1-2.8,0.1s-1.9,0-2.8-0.1c-0.5-0.8-1-1.6-1.5-2.4
	C819.4,477,818.9,476.2,818.5,475.4z M829.7,478.5c0.3-0.5,0.6-1.1,0.9-1.6c0.4,0.9,0.7,1.8,1,2.7c-1,0.2-1.9,0.4-2.9,0.5
	C829,479.5,829.4,479,829.7,478.5z M830.6,473.8c-0.3-0.5-0.6-1.1-0.9-1.6c-0.3-0.5-0.6-1-0.9-1.5c1,0.1,1.9,0.3,2.8,0.5
	C831.3,472.1,830.9,473,830.6,473.8z M824.2,467.1c0.6,0.7,1.3,1.4,1.8,2.2c-1.2-0.1-2.5-0.1-3.7,0
	C822.9,468.4,823.6,467.7,824.2,467.1z M817,463.4c1-0.6,3.3,0.3,5.8,2.4c0.2,0.1,0.3,0.3,0.5,0.4c-1,1-1.8,2.1-2.7,3.2
	c-1.4,0.1-2.8,0.3-4.2,0.6c-0.1-0.3-0.1-0.6-0.2-0.9C815.7,466.1,816,463.9,817,463.4z M815.5,479.3c-0.3-0.1-0.5-0.2-0.8-0.2
	c-1.3-0.4-2.8-1-3.9-1.9c-0.6-0.4-1-1.1-1.2-1.8c0-1.1,2-2.5,4.8-3.5c0.4-0.1,0.7-0.2,1.1-0.3c0.4,1.3,0.9,2.6,1.5,3.8
	C816.4,476.6,815.9,477.9,815.5,479.3z M822.7,485.2c-1,0.9-2.2,1.6-3.5,2.1c-0.7,0.3-1.5,0.3-2.2,0.1c-1-0.6-1.4-2.7-0.8-5.6
	c0.1-0.3,0.1-0.7,0.2-1c1.4,0.3,2.8,0.5,4.2,0.6c0.8,1.1,1.7,2.2,2.7,3.2C823.1,484.8,822.9,485,822.7,485.2z M824.2,483.7
	c-0.6-0.7-1.3-1.4-1.9-2.2c0.6,0,1.2,0,1.8,0c0.6,0,1.3,0,1.9,0C825.5,482.3,824.9,483,824.2,483.7z M832.3,485.5
	c-0.1,0.7-0.4,1.4-1,1.9c-1,0.6-3.1-0.2-5.3-2.1c-0.3-0.2-0.5-0.5-0.8-0.7c0.9-1,1.8-2.1,2.6-3.2c1.4-0.1,2.8-0.3,4.2-0.6
	c0.1,0.2,0.1,0.5,0.2,0.7C832.4,482.8,832.5,484.2,832.3,485.5z M833.4,479c-0.2,0.1-0.3,0.1-0.5,0.2c-0.4-1.3-1-2.6-1.6-3.8
	c0.6-1.2,1.1-2.5,1.5-3.8c0.3,0.1,0.6,0.2,0.9,0.3c2.9,1,4.9,2.4,4.9,3.5C838.7,476.5,836.5,478,833.4,479z M824.2,478.1
	c1.6,0,2.8-1.2,2.8-2.8c0-1.5-1.3-2.8-2.8-2.8s-2.8,1.2-2.8,2.8C821.3,476.9,822.6,478.1,824.2,478.1z"/>
<text transform="matrix(1 0 0 1 793.0245 520.6886)" class="st1 st4 st6">React</text>
<text transform="matrix(1 0 0 1 526.0245 506.6886)" class="st1 st4 st7">React</text>
<path class="st1" d="M762.4,174.5h78.8v78.8h-78.8V174.5z M834.7,234.6c-0.6-3.6-2.9-6.6-9.9-9.4c-2.4-1.1-5.1-1.9-5.9-3.7
	c-0.3-1.1-0.3-1.7-0.2-2.3c0.5-2.1,3-2.8,5-2.2c1.3,0.4,2.5,1.4,3.2,3c3.4-2.2,3.4-2.2,5.8-3.7c-0.9-1.4-1.3-2-1.9-2.6
	c-2.1-2.3-4.8-3.5-9.3-3.4l-2.3,0.3c-2.2,0.5-4.3,1.7-5.6,3.3c-3.7,4.2-2.7,11.6,1.9,14.7c4.5,3.3,11,4.1,11.9,7.2
	c0.8,3.8-2.9,5.1-6.5,4.6c-2.7-0.6-4.1-1.9-5.8-4.4l-6,3.5c0.7,1.6,1.5,2.3,2.7,3.6c5.7,5.8,20,5.5,22.6-3.3
	c0.1-0.3,0.8-2.3,0.2-5.4C834.6,234.3,834.7,234.6,834.7,234.6z M805.2,210.8h-7.4c0,6.4,0,12.7,0,19.1c0,4,0.2,7.8-0.5,8.9
	c-1.1,2.3-3.9,2-5.1,1.6c-1.3-0.6-2-1.5-2.7-2.8c-0.2-0.3-0.4-0.6-0.4-0.6l-6,3.7c1,2.1,2.5,3.8,4.3,5c2.8,1.7,6.6,2.2,10.5,1.3
	c2.6-0.7,4.8-2.3,5.9-4.6c1.7-3.1,1.3-6.8,1.3-11c0-6.7,0-13.5,0-20.3C805.2,211,805.2,210.8,805.2,210.8z"/>
<path class="st1" d="M584.8,485h23v23h-23V485z M605.9,502.5c-0.2-1.1-0.9-1.9-2.9-2.8c-0.7-0.3-1.5-0.6-1.7-1.1
	c-0.1-0.3-0.1-0.5,0-0.7c0.1-0.6,0.9-0.8,1.5-0.6c0.4,0.1,0.7,0.4,0.9,0.9c1-0.6,1-0.6,1.7-1.1c-0.3-0.4-0.4-0.6-0.6-0.7
	c-0.6-0.7-1.4-1-2.7-1l-0.7,0.1c-0.6,0.2-1.3,0.5-1.6,1c-1.1,1.2-0.8,3.4,0.5,4.3c1.3,1,3.2,1.2,3.5,2.1c0.2,1.1-0.8,1.5-1.9,1.4
	c-0.8-0.2-1.2-0.6-1.7-1.3l-1.8,1c0.2,0.5,0.4,0.7,0.8,1.1c1.7,1.7,5.8,1.6,6.6-1C605.8,503.9,606,503.3,605.9,502.5
	C605.9,502.4,605.9,502.5,605.9,502.5z M597.3,495.5h-2.2c0,1.9,0,3.7,0,5.6c0,1.2,0.1,2.3-0.1,2.6c-0.3,0.7-1.1,0.6-1.5,0.5
	c-0.4-0.2-0.6-0.4-0.8-0.8c-0.1-0.1-0.1-0.2-0.1-0.2l-1.8,1.1c0.3,0.6,0.7,1.1,1.3,1.5c0.8,0.5,1.9,0.6,3.1,0.4
	c0.8-0.2,1.4-0.7,1.7-1.4c0.5-0.9,0.4-2,0.4-3.2C597.3,499.6,597.3,497.6,597.3,495.5C597.3,495.6,597.3,495.5,597.3,495.5z"/>
<path class="st1" d="M841.8,503H860v18.2h-18.2V503z M858.5,516.8c-0.1-0.8-0.7-1.5-2.3-2.2c-0.6-0.3-1.2-0.4-1.4-0.9
	c-0.1-0.3-0.1-0.4,0-0.5c0.1-0.5,0.7-0.6,1.2-0.5c0.3,0.1,0.6,0.3,0.7,0.7c0.8-0.5,0.8-0.5,1.3-0.9c-0.2-0.3-0.3-0.5-0.4-0.6
	c-0.5-0.5-1.1-0.8-2.2-0.8l-0.5,0.1c-0.5,0.1-1,0.4-1.3,0.8c-0.9,1-0.6,2.7,0.4,3.4c1,0.8,2.6,0.9,2.7,1.7c0.2,0.9-0.7,1.2-1.5,1.1
	c-0.6-0.1-1-0.4-1.3-1l-1.4,0.8c0.2,0.4,0.3,0.5,0.6,0.8c1.3,1.3,4.6,1.3,5.2-0.8C858.4,518,858.6,517.5,858.5,516.8
	C858.5,516.8,858.5,516.8,858.5,516.8z M851.7,511.3H850c0,1.5,0,2.9,0,4.4c0,0.9,0,1.8-0.1,2.1c-0.3,0.5-0.9,0.5-1.2,0.4
	c-0.3-0.1-0.5-0.4-0.6-0.6c0-0.1-0.1-0.1-0.1-0.1l-1.4,0.9c0.2,0.5,0.6,0.9,1,1.2c0.6,0.4,1.5,0.5,2.4,0.3c0.6-0.2,1.1-0.5,1.4-1.1
	c0.4-0.7,0.3-1.6,0.3-2.5C851.7,514.5,851.7,513,851.7,511.3C851.7,511.4,851.7,511.3,851.7,511.3z"/>
<path class="st8" d="M308.8,588.5h-36.4c-4.3,0-7.8,3.5-7.8,7.8v67.6c0,4.3,3.5,7.8,7.8,7.8h36.4c4.3,0,7.8-3.5,7.8-7.8v-67.6
	C316.6,592,313.1,588.5,308.8,588.5z M290.6,666.5c-2.9,0-5.2-2.3-5.2-5.2s2.3-5.2,5.2-5.2c2.9,0,5.2,2.3,5.2,5.2
	S293.4,666.5,290.6,666.5z M308.8,648.9c0,1.1-0.9,1.9-1.9,1.9h-32.5c-1.1,0-1.9-0.9-1.9-1.9v-50.7c0-1.1,0.9-1.9,1.9-1.9h32.5
	c1.1,0,1.9,0.9,1.9,1.9V648.9z"/>
<g id="Mobile_3">
	<g>
		<path class="st8" d="M1122,581.5h-33.7c-4.6,0.3-8.2,4.2-8,8.9v52.9c-0.2,4.6,3.3,8.6,8,8.9h33.7c4.6-0.3,8.2-4.2,8-8.9v-52.9
			C1130.2,585.8,1126.6,581.8,1122,581.5z M1126.4,643.3c0.2,2.7-1.7,5.1-4.4,5.3h-33.7c-2.7-0.3-4.6-2.7-4.4-5.3v-52.9
			c-0.2-2.7,1.7-5.1,4.4-5.3h5.4v1.8c0,2,1.6,3.6,3.6,3.6h15.7c2,0,3.6-1.6,3.6-3.6v-1.8h5.4c2.7,0.3,4.6,2.7,4.4,5.3V643.3z"/>
		<path class="st8" d="M1098.1,641.5h14.2c1,0,1.8-0.8,1.8-1.8s-0.8-1.8-1.8-1.8h-14.2c-1,0-1.8,0.8-1.8,1.8
			S1097.1,641.5,1098.1,641.5z"/>
	</g>
</g>
<g>
</g>
<path class="st8" d="M161.6,210.2c0,2.1-1.7,3.8-3.8,3.8c-2.1,0-3.8-1.7-3.8-3.8c0-2.1,1.7-3.8,3.8-3.8
	C159.9,206.4,161.6,208.1,161.6,210.2z M195.9,144.2v71c0,4.2-3.2,7.6-7.1,7.6h-61.9c-3.9,0-7.1-3.4-7.1-7.6v-71
	c0-4.2,3.2-7.6,7.1-7.6h62C192.7,136.6,195.9,140.1,195.9,144.2z M190.8,144.2c0-1.4-0.9-2.5-2-2.5h-61.9c-1.1,0-2,1.2-2,2.5v71
	c0,1.4,0.9,2.5,2,2.5h62c1.1,0,2-1.2,2-2.5V144.2z M129.9,146.8h55.8v55.8h-55.8V146.8z M135,197.5h45.6v-45.6H135V197.5z"/>
<path class="st8" d="M1224.1,93.9h-77c-5.3,0-9.6,4.3-9.6,9.6v52.9c0,5.3,4.3,9.6,9.6,9.6h14.4l-4.8,4.8v9.6h57.8v-9.6l-4.8-4.8
	h14.4c5.3,0,9.6-4.3,9.6-9.6v-52.9C1233.7,98.3,1229.4,93.9,1224.1,93.9z M1224.1,156.5h-77v-52.9h77V156.5z"/>
</svg>
